<svg xmlns="http://www.w3.org/2000/svg" xmlns:xlink="http://www.w3.org/1999/xlink" version="1.1" x="0px" y="0px" viewBox="0 0 100 100" enable-background="new 0 0 100 100" xml:space="preserve"><g><path d="M47.624,79.016c-7.529,7.352-12.039,13.608-12.05,15.41c0,0.121,0.023,0.188,0.043,0.207l0.005,0.006   c0.67,0.67,6.89-2.827,15.903-11.627c7.528-7.351,12.04-13.608,12.05-15.411c0.002-0.12-0.021-0.187-0.042-0.206   C62.857,66.719,56.637,70.215,47.624,79.016z"></path><path d="M33.104,37.136c0-0.125-0.023-0.193-0.046-0.216c-0.694-0.694-6.721,2.65-15.784,11.498   C9.805,55.71,5.33,61.927,5.319,63.725c0,0.074,0.008,0.128,0.02,0.164l0.043,0.042c0.69,0.688,6.721-2.657,15.788-11.511   C28.907,44.866,33.094,38.907,33.104,37.136z"></path><path d="M48.436,52.468c0-0.125-0.023-0.193-0.046-0.217c-0.694-0.694-6.722,2.648-15.784,11.498   c-7.47,7.292-11.945,13.508-11.956,15.305c-0.001,0.074,0.007,0.128,0.019,0.164l0.044,0.042c0.689,0.69,6.718-2.655,15.787-11.508   C44.238,60.196,48.425,54.238,48.436,52.468z"></path><path d="M88.864,11.099c-0.192-0.192-0.361-0.409-0.502-0.644L78.26,19.429c-5.752-2.548-18.193,3.242-29.376,14.16   c-2.11,2.061-4.045,4.164-5.771,6.267c-3.15-0.857-6.433-1.028-9.609-0.504c-0.477,0.89-1.161,1.943-2.042,3.142   c-2.281,3.103-5.648,6.873-9.482,10.616c-1.007,0.983-2.015,1.934-3.011,2.841c4.534-1.513,9.955-0.733,14.667,2.182   c0,0-3.248,3.218-4.161,4.446c-1.587,2.134-2.768,4.55-3.618,6.745c1.787-2.051,3.849-4.227,6.07-6.395   c3.831-3.741,7.676-7.015,10.829-9.219c1.554-1.086,2.868-1.863,3.896-2.301c1.278-0.544,2.145-0.571,2.643-0.072l0.007,0.007   l0.003,0.003c0,0,0,0,0,0c0.744,0.744,0.09,2.172-0.121,2.638c-0.46,1.019-1.265,2.311-2.389,3.839   c-2.279,3.101-5.648,6.872-9.483,10.616c-2.16,2.108-4.323,4.067-6.364,5.771c2.153-0.849,4.507-2.016,6.595-3.567   c1.227-0.912,4.432-4.173,4.432-4.173c2.874,4.647,3.673,9.985,2.243,14.481c0.914-0.955,1.867-1.92,2.854-2.882   c3.829-3.739,7.676-7.013,10.83-9.218c1.033-0.722,1.959-1.305,2.768-1.746c0.628-3.33,0.49-6.795-0.416-10.111   c2.105-1.727,4.22-3.649,6.28-5.76c10.917-11.183,16.722-23.608,14.177-29.359l9.021-10.155   C89.407,11.561,89.116,11.35,88.864,11.099z"></path><path d="M93.866,6.095c-0.503-0.503-1.197-0.814-1.964-0.814c-1.532,0-2.78,1.247-2.78,2.78c0,0.767,0.312,1.461,0.815,1.964   s1.198,0.815,1.965,0.816c1.532,0,2.779-1.247,2.779-2.781C94.682,7.294,94.37,6.599,93.866,6.095z"></path></g></svg>