<?xml version="1.0" encoding="utf-8"?>
<!-- Generator: Adobe Illustrator 18.0.0, SVG Export Plug-In . SVG Version: 6.00 Build 0)  -->
<!DOCTYPE svg PUBLIC "-//W3C//DTD SVG 1.1//EN" "http://www.w3.org/Graphics/SVG/1.1/DTD/svg11.dtd">
<svg version="1.1" id="layer" xmlns="http://www.w3.org/2000/svg" xmlns:xlink="http://www.w3.org/1999/xlink" x="0px" y="0px"
	 viewBox="0 0 1200 1200" enable-background="new 0 0 1200 1200" xml:space="preserve">
<path fill="#000000" d="M648,750.4H511.3v-12.9c0-49.4,22.7-99.3,68.1-149.6l32.7-35.9c44.2-48.8,66.3-92.4,66.3-130.7
	c0-57.1-35.9-85.6-107.7-85.6c-46.3,0-99.4,13.7-159.3,41v-104c61.1-18.4,120.7-27.6,179-27.6c72.7,0,130.2,13.9,172.4,41.9
	s63.3,66,63.3,114.1c0,44.2-25.3,90.2-75.9,138.1l-30.8,29.5c-28.8,27.3-47.9,50.4-57.3,69.3c-9.4,18.8-14,43.3-14,73.4V750.4z
	 M511.3,943.2V829.6H648v113.7H511.3z"/>
</svg>
