<?xml version="1.0" encoding="utf-8"?>
<!-- Generator: Adobe Illustrator 18.0.0, SVG Export Plug-In . SVG Version: 6.00 Build 0)  -->
<!DOCTYPE svg PUBLIC "-//W3C//DTD SVG 1.1//EN" "http://www.w3.org/Graphics/SVG/1.1/DTD/svg11.dtd">
<svg version="1.1" id="Layer_1" xmlns="http://www.w3.org/2000/svg" xmlns:xlink="http://www.w3.org/1999/xlink" x="0px" y="0px"
	 viewBox="0 0 1200 1200" enable-background="new 0 0 1200 1200" xml:space="preserve">
<path fill="#B2B2B2" d="M807.2,880.3c-88.1,72.2-201.6,114.4-325.3,110.6C224.1,983.4,13.1,774.4,5.6,515.6
	C-3.8,231.6,228.8,0,512.8,8.4c257.8,8.4,467.8,218.4,475.3,477.2c3.8,123.7-38.4,237.2-110.6,325.3l319.7,319.7l-69.4,69.4
	L807.2,880.3z M476.2,892.5c233.4,12.2,424.7-180,413.4-413.4c-10.3-199.7-172.5-361.9-372.2-372.2
	c-233.4-11.2-425.6,180-413.4,413.4C114.4,720,276.6,882.2,476.2,892.5z"/>
</svg>