<?xml version="1.0" encoding="utf-8"?>
<!-- Generator: Adobe Illustrator 18.0.0, SVG Export Plug-In . SVG Version: 6.00 Build 0)  -->
<!DOCTYPE svg PUBLIC "-//W3C//DTD SVG 1.1//EN" "http://www.w3.org/Graphics/SVG/1.1/DTD/svg11.dtd">
<svg version="1.1" id="Layer_1" xmlns="http://www.w3.org/2000/svg" xmlns:xlink="http://www.w3.org/1999/xlink" x="0px" y="0px"
	 viewBox="0 0 120 120" enable-background="new 0 0 120 120" xml:space="preserve">
<path d="M97,65c0-1.5,0.5-3,0.5-5s0-3.5-0.5-5l10.5-8c1-0.5,1-2,0.5-3L98,26.5c-0.5-1-2-1.5-3-1l-12.5,5c-2.5-2-5.5-3.5-8.5-5L72,12
	c0.5-1-1-2-2-2H50c-1,0-2.5,1-2.5,2l-2,13.5c-3,1-5.5,3-8.5,5l-12.5-5c-1-0.5-2,0-3,1L11.5,44c-0.5,0.5,0,2,1,3L23,55
	c0,1.5-0.5,3-0.5,5s0,3.5,0.5,5l-10.5,8c-1,0.5-1,2-0.5,3l10,17.5c0.5,1,1.5,1.5,3,1l12.5-5c2.5,2,5.5,3.5,8.5,5l2,13c0,1,1,2,2.5,2
	h20c1,0,2.5-1,2.5-2l2-13c3-1,6-3,8.5-5l12.5,5c1,0.5,2.5,0,3-1L109,76c0.5-1,0.5-2.5-0.5-3L97,65z M60,77.5
	c-9.5,0-17.5-8-17.5-17.5s8-17.5,17.5-17.5s17.5,8,17.5,17.5S69.5,77.5,60,77.5z"/>
</svg>
