<?xml version="1.0" encoding="utf-8"?>
<!-- Generator: Adobe Illustrator 18.0.0, SVG Export Plug-In . SVG Version: 6.00 Build 0)  -->
<!DOCTYPE svg PUBLIC "-//W3C//DTD SVG 1.1//EN" "http://www.w3.org/Graphics/SVG/1.1/DTD/svg11.dtd">
<svg version="1.1" id="Layer_2" xmlns="http://www.w3.org/2000/svg" xmlns:xlink="http://www.w3.org/1999/xlink" x="0px" y="0px"
	 viewBox="0 0 240 240" enable-background="new 0 0 240 240" xml:space="preserve">
<rect x="21.8" y="65.5" fill="#585858" width="10.9" height="109.1"/>
<polygon fill="#585858" points="43.6,65.5 43.6,174.5 49.1,174.5 65.5,152.7 65.2,152.7 60,152.7 54.5,158.2 54.5,81.8 60,87.3 
	65.5,87.3 65.5,81.8 49.1,65.5 "/>
<rect x="207.3" y="65.5" fill="#585858" width="10.9" height="109.1"/>
<path fill="#585858" d="M152.8,76.4H87.2c-6,0-10.9,4.9-10.9,10.9v65.5c0,6,4.9,10.9,10.9,10.9h65.5c6,0,10.9-4.9,10.9-10.9V87.2
	C163.6,81.2,158.8,76.4,152.8,76.4z M152.7,152.7H87.3V87.3h65.5V152.7z"/>
<polygon fill="#585858" points="174.5,81.8 174.5,87.3 180,87.3 185.5,81.8 185.5,158.2 180,152.7 174.8,152.7 174.5,152.7 
	190.9,174.5 196.4,174.5 196.4,65.5 190.9,65.5 "/>
</svg>
