<?xml version="1.0" encoding="utf-8"?>
<!-- Generator: Adobe Illustrator 18.0.0, SVG Export Plug-In . SVG Version: 6.00 Build 0)  -->
<!DOCTYPE svg PUBLIC "-//W3C//DTD SVG 1.1//EN" "http://www.w3.org/Graphics/SVG/1.1/DTD/svg11.dtd">
<svg version="1.1" id="Layer_2" xmlns="http://www.w3.org/2000/svg" xmlns:xlink="http://www.w3.org/1999/xlink" x="0px" y="0px"
	 viewBox="0 0 240 240" enable-background="new 0 0 240 240" xml:space="preserve">
<path fill="#585858" d="M98.2,65.5H76.4c-6,0-10.9,4.8-10.9,10.9v21.8c0,6,4.8,10.9,10.9,10.9h21.8c6,0,10.9-4.8,10.9-10.9V76.4
	C109.1,70.3,104.3,65.5,98.2,65.5z M98.2,92.7c0,3.1-2.5,5.5-5.5,5.5H81.9c-3.1,0-5.5-2.5-5.5-5.5V81.9c0-3.1,2.5-5.5,5.5-5.5h10.8
	c3.1,0,5.5,2.5,5.5,5.5V92.7z"/>
<path fill="#585858" d="M98.2,130.9H76.4c-6,0-10.9,4.8-10.9,10.9v21.8c0,6,4.8,10.9,10.9,10.9h21.8c6,0,10.9-4.8,10.9-10.9v-21.8
	C109.1,135.8,104.3,130.9,98.2,130.9z M98.2,158.1c0,3.1-2.5,5.5-5.5,5.5H81.9c-3.1,0-5.5-2.5-5.5-5.5v-10.8c0-3.1,2.5-5.5,5.5-5.5
	h10.8c3.1,0,5.5,2.5,5.5,5.5V158.1z"/>
<path fill="#585858" d="M163.6,130.9h-21.8c-6,0-10.9,4.8-10.9,10.9v21.8c0,6,4.8,10.9,10.9,10.9h21.8c6,0,10.9-4.8,10.9-10.9v-21.8
	C174.5,135.8,169.7,130.9,163.6,130.9z M163.6,158.1c0,3.1-2.5,5.5-5.5,5.5h-10.8c-3.1,0-5.5-2.5-5.5-5.5v-10.8
	c0-3.1,2.5-5.5,5.5-5.5h10.8c3.1,0,5.5,2.5,5.5,5.5V158.1z"/>
<path fill="#585858" d="M163.6,65.5h-21.8c-6,0-10.9,4.8-10.9,10.9v21.8c0,6,4.8,10.9,10.9,10.9h21.8c6,0,10.9-4.8,10.9-10.9V76.4
	C174.5,70.3,169.7,65.5,163.6,65.5z M163.6,92.7c0,3.1-2.5,5.5-5.5,5.5h-10.8c-3.1,0-5.5-2.5-5.5-5.5V81.9c0-3.1,2.5-5.5,5.5-5.5
	h10.8c3.1,0,5.5,2.5,5.5,5.5V92.7z"/>
</svg>
