<?xml version="1.0" encoding="utf-8"?>
<!-- Generator: Adobe Illustrator 18.0.0, SVG Export Plug-In . SVG Version: 6.00 Build 0)  -->
<!DOCTYPE svg PUBLIC "-//W3C//DTD SVG 1.1//EN" "http://www.w3.org/Graphics/SVG/1.1/DTD/svg11.dtd">
<svg version="1.1" id="Capa_1" xmlns="http://www.w3.org/2000/svg" xmlns:xlink="http://www.w3.org/1999/xlink" x="0px" y="0px"
	 viewBox="0 0 475.5 475.5" enable-background="new 0 0 475.5 475.5" xml:space="preserve">
<path d="M468.1,118.4c-4-5.3-9.6-9.4-16.9-12.3c0.4,6.7-0.1,12.1-1.4,16.3l-85.6,281.8c-1.5,4.9-4.9,8.9-10,11.8
	c-5.1,3-10.5,4.4-16,4.4H74.7c-22.8,0-36.5-6.7-41.1-20c-1.9-5.1-1.8-9.2,0.3-12.3c2.1-2.9,5.7-4.3,10.9-4.3h248.1
	c17.7,0,29.9-3.3,36.7-9.9c6.8-6.6,13.6-21.2,20.4-43.8l78.2-258.7c4.2-14.1,2.5-26.5-5.1-37.1s-18.5-16-32.5-16H173.2
	c-2.5,0-7.3,0.9-14.6,2.6l0.3-0.9c-5.3-1.1-9.9-1.7-13.6-1.6c-3.7,0.1-7.1,1.2-10.3,3.3c-3.1,2.1-5.7,4.3-7.6,6.7
	c-1.9,2.4-3.8,5.4-5.6,9.1c-1.8,3.7-3.3,7.1-4.6,10.3s-2.7,6.5-4.3,10c-1.6,3.5-3.2,6.4-4.7,8.7c-1.1,1.5-2.8,3.5-4.9,6
	c-2.1,2.5-3.8,4.7-5.1,6.6c-1.3,1.9-2.2,3.6-2.6,5.1c-0.4,1.7-0.2,4.2,0.6,7.6c0.8,3.3,1,5.8,0.9,7.3c-0.8,7.2-3.4,16.4-7.8,27.6
	c-4.5,11.1-8.5,19.2-12.1,24.1c-0.8,0.9-2.9,3.1-6.3,6.4c-3.4,3.3-5.5,6.2-6.3,8.7c-0.8,1-0.8,3.6-0.1,8c0.7,4.4,0.9,7.4,0.7,9.1
	c-0.8,6.5-3.1,15-7.1,25.7c-4,10.7-8,19.4-12,26.3c-0.6,1.1-2.2,3.3-4.9,6.6c-2.7,3.2-4.3,5.9-4.9,8c-0.4,1.5-0.3,4.2,0.1,8
	c0.5,3.8,0.4,6.7-0.1,8.6c-1.5,7.2-4.4,15.9-8.6,26.1c-4.2,10.2-8.5,18.9-12.9,26.1c-1.1,1.9-2.7,4.1-4.7,6.7
	c-2,2.6-3.6,4.8-4.7,6.7c-1.1,1.9-1.9,3.9-2.3,6c-0.2,1.1,0.1,3,0.9,5.6c0.8,2.6,1,4.6,0.9,6.1c-0.2,2.7-0.6,6.2-1.1,10.6
	c-0.6,4.4-0.9,6.9-0.9,7.7c-4.2,11.4-4,23.5,0.6,36.3C8.9,419,18.4,431.5,32,441.7C45.6,451.9,59.7,457,74.4,457h263.5
	c12.4,0,24-4.1,35-12.4c10.9-8.3,18.2-18.5,21.8-30.7l78.5-258.7C477.4,141.5,475.7,129.2,468.1,118.4z M164.3,119l6-18.3
	c0.8-2.5,2.3-4.6,4.7-6.4c2.4-1.8,4.8-2.7,7.3-2.7h173.6c2.7,0,4.6,0.9,5.7,2.7c1.1,1.8,1.3,3.9,0.6,6.4l-6,18.3
	c-0.8,2.5-2.3,4.6-4.7,6.4c-2.4,1.8-4.8,2.7-7.3,2.7H170.6c-2.7,0-4.6-0.9-5.7-2.7C163.7,123.6,163.6,121.4,164.3,119z M140.6,192
	l6-18.3c0.8-2.5,2.3-4.6,4.7-6.4c2.4-1.8,4.8-2.7,7.3-2.7h173.6c2.7,0,4.6,0.9,5.7,2.7c1.1,1.8,1.3,3.9,0.6,6.4l-6,18.3
	c-0.8,2.5-2.3,4.6-4.7,6.4c-2.4,1.8-4.8,2.7-7.3,2.7H146.9c-2.7,0-4.6-0.9-5.7-2.7C140,196.7,139.9,194.5,140.6,192z"/>
</svg>
